<svg xmlns="http://www.w3.org/2000/svg" width="30" height="35" viewBox="0 0 30 35" fill="none"><mask id="mask0_307_2" style="mask-type:luminance" maskUnits="userSpaceOnUse" x="2" y="4" width="26" height="26"><path d="M2 4H28V30H2V4Z" fill="white"></path></mask><g mask="url(#mask0_307_2)"><path d="M12.4427 8.83127C11.4817 10.0116 10.2008 10.8582 8.73819 11.2795C8.26008 11.4173 7.98414 11.9164 8.12186 12.3946C8.25176 12.8455 8.70315 13.1166 9.1551 13.0304C9.18242 13.0252 9.20974 13.0187 9.23696 13.0109C9.98111 12.7966 10.6874 12.4935 11.3441 12.1097" stroke="#FA924C" stroke-width="0.8" stroke-miterlimit="10" stroke-linecap="round" stroke-linejoin="round"></path><path d="M15.0063 14.3718L15.9872 11.5699C16.2831 11.6158 16.5803 11.6394 16.8765 11.6394C18.2119 11.6394 19.5236 11.1772 20.5779 10.3014L20.6988 10.2009C21.0745 9.88876 21.1518 9.33077 20.8533 8.94417C20.5399 8.53823 19.9552 8.47622 19.564 8.80122L19.4265 8.91548C19.1918 9.11038 18.9386 9.27557 18.6724 9.40994C17.6339 9.9338 16.386 9.66258 15.5948 8.81006C15.2077 8.39294 14.6542 8.12807 14.0306 8.12807C13.0583 8.12807 12.2087 8.78487 11.964 9.72585L10.7554 14.3718H15.0063Z" stroke="#FA924C" stroke-width="0.8" stroke-miterlimit="10" stroke-linecap="round" stroke-linejoin="round"></path><path d="M13.0975 26.6931L18.8672 20.9233L21.0253 23.0814L25.5238 18.5828L26.6118 19.6708L27.4926 15.2943L23.116 16.175L24.0673 17.1263L21.0253 20.1683L18.8672 18.0102L8.84082 28.0367L10.2974 29.4932L13.0975 26.6931Z" stroke="#FA924C" stroke-width="0.8" stroke-miterlimit="10" stroke-linecap="round" stroke-linejoin="round"></path><path d="M17.1593 6.31745C17.1593 5.31746 16.3487 4.50684 15.3487 4.50684C14.3487 4.50684 13.5381 5.31746 13.5381 6.31745C13.5381 7.31743 14.3487 8.12805 15.3487 8.12805C16.3487 8.12805 17.1593 7.31743 17.1593 6.31745Z" stroke="#FA924C" stroke-width="0.8" stroke-miterlimit="10" stroke-linecap="round" stroke-linejoin="round"></path><path d="M7.51766 22.8623L7.20474 23.6827C6.97409 24.2875 7.36724 24.9494 8.00861 25.0362L8.03232 25.0394C8.47133 25.0988 8.89423 24.8762 9.09121 24.4856C10.0954 22.4946 13.0599 16.6333 13.0599 16.6333H14.2638L13.6498 20.4933C13.5589 21.0647 14.0004 21.5819 14.5789 21.5819C15.0014 21.5819 15.372 21.3003 15.4853 20.8933L16.6392 16.7473C16.9714 15.5534 16.0737 14.3718 14.8345 14.3718H14.2849" stroke="#FA924C" stroke-width="0.8" stroke-miterlimit="10" stroke-linecap="round" stroke-linejoin="round"></path><path d="M10.7555 14.3718L7.5 23" stroke="#FA924C" stroke-width="0.8" stroke-miterlimit="10" stroke-linecap="round" stroke-linejoin="round"></path><path d="M6.45662 18.1826L2.70358 14.4296C2.44581 14.1718 2.44581 13.7538 2.70358 13.496L5.42784 10.7718C5.68566 10.5139 6.10364 10.5139 6.36145 10.7718L10.1144 14.5248C10.3723 14.7826 10.3723 15.2005 10.1144 15.4584L7.39023 18.1826C7.13241 18.4404 6.71443 18.4404 6.45662 18.1826Z" stroke="#FA924C" stroke-width="0.8" stroke-miterlimit="10" stroke-linecap="round" stroke-linejoin="round"></path><path d="M4.06543 12.1338L5.77529 13.8437" stroke="#FA924C" stroke-width="0.8" stroke-miterlimit="10" stroke-linecap="round" stroke-linejoin="round"></path><path d="M8.6288 16.6967L6.91895 14.9868" stroke="#FA924C" stroke-width="0.8" stroke-miterlimit="10" stroke-linecap="round" stroke-linejoin="round"></path><path d="M5.85301 15.0644L5.69772 14.9091C5.42498 14.6363 5.42498 14.1941 5.69772 13.9213L6.34691 13.2721L7.49 14.4152L6.84081 15.0644C6.56806 15.3372 6.12581 15.3372 5.85301 15.0644Z" stroke="#FA924C" stroke-width="0.8" stroke-miterlimit="10" stroke-linecap="round" stroke-linejoin="round"></path></g></svg>