<svg xmlns="http://www.w3.org/2000/svg" width="30" height="35" viewBox="0 0 30 35" fill="none"><path d="M27.4243 21.2125C27.0312 20.5325 26.5033 19.94 25.873 19.4715C25.2426 19.0029 24.5232 18.6682 23.7588 18.4878C23.6029 17.2561 23.2027 16.0678 22.5814 14.9929C21.9197 13.8493 21.0251 12.8574 19.9556 12.0814C20.1511 11.2337 20.1527 10.3528 19.9604 9.50434C19.7681 8.6559 19.3869 7.86178 18.845 7.18114C18.3032 6.50049 17.6148 5.95088 16.8311 5.57323C16.0474 5.19559 15.1886 4.99964 14.3186 5C13.4486 5.00036 12.59 5.19701 11.8066 5.5753C11.0231 5.95359 10.3352 6.50377 9.79394 7.18485C9.25268 7.86594 8.87208 8.66037 8.68049 9.50897C8.4889 10.3576 8.49125 11.2385 8.68737 12.086C7.62763 12.8562 6.74009 13.8389 6.08139 14.9713C5.42269 16.1038 5.00729 17.3611 4.8617 18.663C4.06053 18.9451 3.33135 19.4003 2.72601 19.9962C2.12068 20.5921 1.65405 21.314 1.3593 22.1106C1.06456 22.9072 0.948931 23.759 1.02065 24.6054C1.09237 25.4517 1.34967 26.2719 1.77425 27.0076C2.19884 27.7432 2.78028 28.3763 3.47725 28.8618C4.17422 29.3474 4.96959 29.6734 5.80681 29.8167C6.64404 29.96 7.50255 29.9171 8.32132 29.6911C9.14009 29.465 9.89901 29.0613 10.5441 28.5088C11.7997 29.0567 13.1593 29.3255 14.529 29.2966C15.8987 29.2676 17.2457 28.9416 18.4771 28.3411C19.1681 28.9846 20.0069 29.4479 20.9196 29.6901C22.0244 29.9864 23.1923 29.9483 24.2755 29.5807C25.3587 29.2131 26.3086 28.5325 27.0049 27.625C27.7012 26.7175 28.1127 25.6238 28.1874 24.4824C28.262 23.3409 27.9965 22.203 27.4243 21.2125ZM17.0546 14.5251L16.4041 14.0625C16.3279 14.0089 16.2647 13.9391 16.2189 13.8581C16.1731 13.7771 16.1459 13.6869 16.1392 13.5941C16.1314 13.5008 16.144 13.407 16.1762 13.3191C16.2083 13.2312 16.2592 13.1514 16.3254 13.0852L16.8169 12.5937C16.9427 12.4681 17.0424 12.3188 17.1102 12.1545C17.178 11.9901 17.2126 11.814 17.2119 11.6362V11.0099C17.212 10.7153 17.2976 10.427 17.4583 10.18C17.6191 9.93308 17.848 9.73807 18.1174 9.61866L18.7118 9.35498C19.0196 10.2811 19.0249 11.2811 18.727 12.2105C18.4291 13.1399 17.8434 13.9505 17.0546 14.5251ZM18.2111 8.31067L17.6473 8.56163C17.1736 8.77203 16.771 9.11531 16.4885 9.54986C16.2059 9.98441 16.0555 10.4916 16.0554 11.0099V11.635C16.0554 11.6875 16.0346 11.7378 15.9975 11.7749L15.506 12.2664C15.3213 12.4511 15.1789 12.6738 15.0888 12.919C14.9988 13.1642 14.9631 13.426 14.9844 13.6864C15.0057 13.9467 15.0834 14.1993 15.2121 14.4266C15.3409 14.654 15.5175 14.8505 15.7298 15.0027L15.9183 15.1369C15.4066 15.3276 14.865 15.4255 14.3189 15.426C14.2113 15.426 14.1055 15.4173 13.9997 15.4098L13.6366 12.8771C13.6017 12.6343 13.5097 12.4033 13.3681 12.2031C13.2265 12.0028 13.0394 11.8391 12.8221 11.7252C12.6049 11.6114 12.3637 11.5508 12.1185 11.5484C11.8732 11.546 11.6309 11.6018 11.4115 11.7113L9.9942 12.4232C9.88952 12.1451 9.81206 11.8575 9.76291 11.5645L10.85 11.1019C11.3108 10.9045 11.807 10.8032 12.3083 10.8041H13.0369C13.2728 10.803 13.4987 10.7089 13.6655 10.5421L14.7526 9.4556C14.9917 9.2179 15.1668 8.92363 15.2617 8.60014C15.3566 8.27665 15.3683 7.93441 15.2956 7.60521L14.9902 6.23015C15.6448 6.32635 16.2712 6.56186 16.827 6.92077C17.3828 7.27968 17.8552 7.75364 18.2122 8.31067H18.2111ZM12.7981 15.1652C11.8821 14.844 11.0898 14.2438 10.5325 13.449L11.9307 12.7475C11.9862 12.7199 12.0474 12.7059 12.1093 12.7065C12.1712 12.707 12.2321 12.7223 12.287 12.751C12.3419 12.7796 12.3892 12.8209 12.4251 12.8713C12.4609 12.9218 12.4843 12.98 12.4934 13.0413L12.7981 15.1652ZM13.8002 6.20702L14.1662 7.84981C14.1971 7.98967 14.192 8.13506 14.1516 8.27245C14.1111 8.40984 14.0366 8.53478 13.9349 8.63565L12.9248 9.64758H12.3083C11.6496 9.64712 10.9977 9.78112 10.3926 10.0414L9.71896 10.3305C9.82822 9.28124 10.2922 8.30069 11.0343 7.55093C11.7764 6.80116 12.7522 6.32707 13.8002 6.20702ZM2.79736 26.4167C2.37257 25.6822 2.15794 24.8451 2.17698 23.9969C2.19601 23.1486 2.44796 22.3219 2.90526 21.6073C3.36257 20.8926 4.00762 20.3175 4.76985 19.9448C5.53207 19.5721 6.38211 19.4162 7.22698 19.4942C8.07184 19.5722 8.87899 19.8811 9.56011 20.387C10.2412 20.8929 10.7701 21.5764 11.0889 22.3627C11.4076 23.149 11.504 24.0078 11.3674 24.8452C11.2309 25.6826 10.8666 26.4663 10.3146 27.1106C10.1195 26.5978 9.81473 26.1339 9.42159 25.7512C9.02845 25.3686 8.55643 25.0765 8.03858 24.8953C8.46242 24.6276 8.78782 24.2295 8.96578 23.7608C9.14374 23.2922 9.16462 22.7784 9.02528 22.2968C8.88594 21.8153 8.59393 21.392 8.19321 21.0908C7.79248 20.7896 7.30475 20.6268 6.80345 20.6268C6.30214 20.6268 5.81441 20.7896 5.41368 21.0908C5.01296 21.392 4.72095 21.8153 4.58161 22.2968C4.44227 22.7784 4.46315 23.2922 4.64111 23.7608C4.81907 24.2295 5.14447 24.6276 5.56831 24.8953C5.05032 25.0764 4.57815 25.3685 4.18482 25.7512C3.79149 26.1338 3.4865 26.5978 3.29118 27.1106C3.10559 26.895 2.94028 26.6627 2.79736 26.4167ZM6.80345 24.1037C6.57471 24.1037 6.35112 24.0359 6.16093 23.9088C5.97075 23.7817 5.82252 23.6011 5.73499 23.3898C5.64746 23.1785 5.62455 22.9459 5.66918 22.7216C5.7138 22.4973 5.82395 22.2912 5.98568 22.1295C6.14742 21.9677 6.35349 21.8576 6.57783 21.813C6.80216 21.7683 7.03469 21.7912 7.24602 21.8788C7.45734 21.9663 7.63796 22.1145 7.76503 22.3047C7.89211 22.4949 7.95994 22.7185 7.95994 22.9472C7.95994 23.2539 7.83809 23.5481 7.62121 23.765C7.40432 23.9819 7.11017 24.1037 6.80345 24.1037ZM4.25917 27.9629C4.36604 27.3664 4.67928 26.8264 5.14408 26.4374C5.60888 26.0485 6.19565 25.8354 6.80171 25.8354C7.40777 25.8354 7.99454 26.0485 8.45934 26.4374C8.92414 26.8264 9.23738 27.3664 9.34426 27.9629C9.26851 28.0132 9.19449 28.0653 9.11296 28.1115C8.36963 28.5391 7.5221 28.7516 6.66499 28.7253C5.80789 28.6991 4.97495 28.4351 4.25917 27.9629ZM11.3988 27.6108C12.0898 26.7037 12.4972 25.6126 12.5698 24.4747C12.6424 23.3367 12.3769 22.2027 11.8068 21.2152C11.2366 20.2277 10.3872 19.4308 9.36538 18.9247C8.34354 18.4187 7.1949 18.226 6.06387 18.371C6.39751 16.3435 7.47342 14.5126 9.08231 13.2344C9.54449 14.2351 10.2836 15.0825 11.2122 15.6764C12.1408 16.2703 13.2201 16.5858 14.3223 16.5856C15.4246 16.5854 16.5038 16.2695 17.4322 15.6754C18.3606 15.0812 19.0994 14.2335 19.5613 13.2327C20.3748 13.8805 21.0597 14.6751 21.5805 15.5752C22.0739 16.428 22.4096 17.3627 22.5716 18.3346C21.5441 18.3045 20.5272 18.5494 19.626 19.044C18.7248 19.5386 17.9721 20.2649 17.4457 21.1478C16.9192 22.0308 16.6382 23.0383 16.6315 24.0663C16.6249 25.0942 16.8929 26.1053 17.4079 26.9949C17.4935 27.143 17.5871 27.2841 17.6837 27.4228C15.6929 28.2979 13.44 28.3653 11.4005 27.6108H11.3988ZM24.7273 28.111C23.9349 28.568 23.0246 28.7799 22.1118 28.7197C21.1989 28.6596 20.3244 28.3301 19.5988 27.773C18.8731 27.2158 18.329 26.456 18.0352 25.5897C17.7413 24.7233 17.7109 23.7892 17.9479 22.9056C18.1849 22.022 18.6785 21.2285 19.3664 20.6254C20.0543 20.0223 20.9056 19.6367 21.8126 19.5173C22.7196 19.398 23.6417 19.5503 24.4622 19.955C25.2826 20.3596 25.9647 20.9985 26.4222 21.7907C27.0347 22.8536 27.2004 24.1161 26.883 25.3011C26.5656 26.486 25.7909 27.4966 24.7291 28.111H24.7273Z" fill="#FA924C"></path><path d="M24.2748 22.0498C24.163 21.6425 23.9205 21.2832 23.5846 21.0272C23.2488 20.7711 22.8381 20.6324 22.4158 20.6324C21.9934 20.6324 21.5828 20.7711 21.2469 21.0272C20.911 21.2832 20.6685 21.6425 20.5567 22.0498C20.1064 22.1729 19.716 22.4553 19.4582 22.8446C19.2004 23.2338 19.0926 23.7034 19.1549 24.1661C19.2173 24.6288 19.4454 25.0532 19.7971 25.3603C20.1487 25.6675 20.5998 25.8366 21.0667 25.8361H21.8375V26.9926C21.8375 27.146 21.8984 27.2931 22.0069 27.4015C22.1153 27.5099 22.2624 27.5709 22.4158 27.5709C22.5691 27.5709 22.7162 27.5099 22.8246 27.4015C22.9331 27.2931 22.994 27.146 22.994 26.9926V25.8361H23.7648C24.2317 25.8366 24.6829 25.6675 25.0345 25.3603C25.3861 25.0532 25.6143 24.6288 25.6766 24.1661C25.7389 23.7034 25.6312 23.2338 25.3733 22.8446C25.1155 22.4553 24.7252 22.1729 24.2748 22.0498ZM23.7648 24.682H21.0667C20.8623 24.682 20.6662 24.6007 20.5217 24.4562C20.3771 24.3116 20.2959 24.1156 20.2959 23.9112C20.2959 23.7067 20.3771 23.5107 20.5217 23.3661C20.6662 23.2216 20.8623 23.1404 21.0667 23.1404C21.2201 23.1404 21.3672 23.0794 21.4756 22.971C21.584 22.8625 21.645 22.7155 21.645 22.5621C21.645 22.3577 21.7262 22.1616 21.8707 22.0171C22.0153 21.8725 22.2113 21.7913 22.4158 21.7913C22.6202 21.7913 22.8163 21.8725 22.9608 22.0171C23.1054 22.1616 23.1866 22.3577 23.1866 22.5621C23.1866 22.7155 23.2475 22.8625 23.3559 22.971C23.4644 23.0794 23.6115 23.1404 23.7648 23.1404C23.9692 23.1404 24.1653 23.2216 24.3099 23.3661C24.4544 23.5107 24.5356 23.7067 24.5356 23.9112C24.5356 24.1156 24.4544 24.3116 24.3099 24.4562C24.1653 24.6007 23.9692 24.682 23.7648 24.682Z" fill="#FA924C"></path></svg>