<svg xmlns="http://www.w3.org/2000/svg" width="30" height="35" viewBox="0 0 30 35" fill="none"><path d="M14.568 18.899C10.6679 18.7718 9.73259 15.4326 9.53237 14.3545C9.15691 14.2675 8.82238 14.055 8.58405 13.7521C8.31197 13.3772 8.18576 12.9161 8.22902 12.4548C8.19811 12.2063 8.21971 11.9541 8.29241 11.7145C8.36511 11.4749 8.4873 11.2532 8.65108 11.0637C8.74352 10.9689 8.84981 10.8888 8.96632 10.8259C8.24144 9.65559 7.88442 8.2947 7.94145 6.91928C8.39291 3.69334 10.9927 3.37939 11.807 3.36123C12.1817 2.92535 12.6502 2.57986 13.1773 2.35063C14.1648 1.95233 15.2562 1.89152 16.2818 2.17766C18.2978 2.70393 19.6422 3.71323 20.28 5.17788C21.1882 7.25961 20.3916 9.65572 19.9341 10.7316C20.1086 10.7883 20.2694 10.8806 20.4063 11.0027C20.5926 11.1919 20.733 11.4213 20.8167 11.6733C20.9004 11.9253 20.9251 12.1931 20.8889 12.4561C20.9326 12.9173 20.8065 13.3786 20.5343 13.7534C20.2957 14.0563 19.9611 14.2687 19.5856 14.3558C19.3853 15.4326 18.4522 18.7718 14.568 18.899ZM9.68891 11.5173C9.53555 11.5102 9.38552 11.5636 9.27118 11.6661C9.19204 11.777 9.13565 11.9024 9.10529 12.0352C9.07494 12.168 9.07121 12.3055 9.09432 12.4397C9.09613 12.4686 9.09511 12.4975 9.09129 12.5262C9.06779 12.7744 9.13189 13.023 9.27248 13.2289C9.36017 13.3269 9.46655 13.4063 9.58536 13.4626C9.70417 13.5189 9.83303 13.5509 9.96437 13.5567C10.0632 13.5684 10.1551 13.6138 10.2243 13.6854C10.2936 13.7569 10.336 13.8501 10.3445 13.9493C10.3588 14.1102 10.7423 17.9091 14.5689 18.0345C18.3743 17.9091 18.7596 14.1102 18.7739 13.9485C18.7825 13.8494 18.8251 13.7564 18.8943 13.685C18.9635 13.6137 19.0553 13.5683 19.154 13.5567C19.2853 13.5509 19.4142 13.519 19.533 13.4627C19.6519 13.4064 19.7582 13.3269 19.8459 13.2289C19.9871 13.022 20.0512 12.7721 20.0271 12.5227C20.0235 12.4949 20.0225 12.4668 20.024 12.4389C20.0474 12.3002 20.0422 12.1582 20.0086 12.0217C19.9751 11.8852 19.914 11.7569 19.829 11.6449C19.6939 11.5454 19.5259 11.5015 19.3594 11.5221C19.2794 11.5363 19.197 11.5276 19.1216 11.4972C19.0463 11.4667 18.9811 11.4156 18.9334 11.3497C18.8858 11.2838 18.8577 11.2059 18.8524 11.1248C18.847 11.0437 18.8646 10.9627 18.9032 10.8912C18.9192 10.8609 20.5032 7.85463 19.4852 5.5182C18.9581 4.31085 17.8074 3.46804 16.0643 3.01312C15.2265 2.77603 14.3339 2.82162 13.5246 3.14285C13.0642 3.34121 12.6629 3.65523 12.3596 4.05442C12.316 4.1138 12.2577 4.16092 12.1905 4.19122C12.1233 4.22152 12.0495 4.23398 11.976 4.22739C11.864 4.21831 9.21626 4.04707 8.80113 7.00707C8.80113 7.00707 8.68135 9.36166 10.0452 10.7887C10.1047 10.8508 10.1442 10.9293 10.1589 11.014C10.1735 11.0987 10.1625 11.1859 10.1274 11.2644C10.095 11.3448 10.0379 11.413 9.9643 11.4589C9.8907 11.5048 9.80442 11.5262 9.71789 11.5199L9.68891 11.5173Z" fill="#FA924C"></path><path d="M19.2843 11.5277C19.1726 11.5278 19.0653 11.4848 18.9847 11.4075C18.9041 11.3303 18.8565 11.225 18.8518 11.1134C18.8466 11.0014 18.7126 8.38912 16.7623 8.13788C15.8703 8.25117 14.9645 8.18054 14.1008 7.93035C13.2371 7.68016 12.4338 7.25571 11.7405 6.68318C11.1891 7.09788 9.91863 8.35842 10.163 11.0469C10.1662 11.1569 10.1273 11.264 10.0543 11.3464C9.98126 11.4288 9.87956 11.4802 9.76992 11.4902C9.66028 11.5002 9.55097 11.468 9.46426 11.4001C9.37755 11.3323 9.31998 11.2339 9.30328 11.1251C8.94479 7.18091 11.4776 5.81183 11.5852 5.75561C11.6654 5.71378 11.7566 5.69812 11.8461 5.71085C11.9357 5.72357 12.0189 5.76402 12.0843 5.82653C12.7006 6.3848 13.4303 6.80336 14.2233 7.05361C15.0164 7.30386 15.8541 7.37988 16.6793 7.27647C16.7189 7.27007 16.7591 7.26862 16.7991 7.27215C18.9976 7.50091 19.6691 9.86285 19.7167 11.0776C19.7211 11.192 19.68 11.3035 19.6024 11.3876C19.5247 11.4718 19.4168 11.5217 19.3024 11.5264L19.2843 11.5277Z" fill="#FA924C"></path><path d="M26.7256 32.271H2.43243C2.31774 32.271 2.20775 32.2255 2.12666 32.1444C2.04556 32.0633 2 31.9533 2 31.8386V27.0179C2.00309 25.4942 2.61029 24.034 3.68844 22.9574C4.7666 21.8807 6.2277 21.2756 7.75135 21.2747H8.58162C8.69631 21.2747 8.8063 21.3203 8.8874 21.4014C8.96849 21.4825 9.01405 21.5925 9.01405 21.7072C9.01405 21.8218 8.96849 21.9318 8.8874 22.0129C8.8063 22.094 8.69631 22.1396 8.58162 22.1396H7.75135C6.45701 22.1403 5.21575 22.6542 4.29974 23.5687C3.38373 24.4831 2.86773 25.7235 2.86487 27.0179V31.4062H26.2932V27.0179C26.2917 25.7245 25.7773 24.4846 24.8627 23.57C23.9482 22.6555 22.7083 22.1411 21.4149 22.1396H20.525C20.4103 22.1396 20.3003 22.094 20.2192 22.0129C20.1381 21.9318 20.0925 21.8218 20.0925 21.7072C20.0925 21.5925 20.1381 21.4825 20.2192 21.4014C20.3003 21.3203 20.4103 21.2747 20.525 21.2747H21.4149C22.9374 21.2769 24.397 21.8827 25.4735 22.9592C26.5501 24.0358 27.1559 25.4953 27.1581 27.0179V31.8386C27.1581 31.9533 27.1125 32.0633 27.0314 32.1444C26.9503 32.2255 26.8403 32.271 26.7256 32.271Z" fill="#FA924C"></path><path d="M16.0243 32.271C15.9621 32.2711 15.9005 32.2576 15.844 32.2317C15.7874 32.2057 15.7371 32.1679 15.6965 32.1207C15.6559 32.0735 15.6259 32.0182 15.6087 31.9584C15.5915 31.8986 15.5874 31.8357 15.5966 31.7742L17.3467 20.1923C17.3559 20.1311 17.3783 20.0725 17.4122 20.0206C17.446 19.9687 17.4907 19.9247 17.543 19.8916C17.5954 19.8585 17.6543 19.837 17.7157 19.8286C17.7771 19.8202 17.8396 19.8251 17.8989 19.8429L20.919 20.7532C20.9791 20.7713 21.0346 20.8024 21.0816 20.8441C21.1285 20.8859 21.1658 20.9373 21.1908 20.995C21.2158 21.0526 21.228 21.115 21.2265 21.1778C21.2249 21.2406 21.2097 21.3023 21.1819 21.3586L19.9815 23.7673L20.6777 24.5487C20.7394 24.6184 20.7769 24.7062 20.7847 24.799C20.7925 24.8918 20.7702 24.9846 20.7209 25.0637L16.3919 32.0661C16.3531 32.1287 16.299 32.1804 16.2347 32.2163C16.1704 32.2522 16.098 32.271 16.0243 32.271ZM18.1277 20.815L16.7677 29.8153L19.8176 24.8855L19.1417 24.1266C19.0842 24.0621 19.0473 23.9819 19.0358 23.8963C19.0244 23.8106 19.0388 23.7235 19.0773 23.6462L20.1791 21.4347L18.1277 20.815Z" fill="#FA924C"></path><path d="M13.0844 32.271C13.0107 32.2711 12.9381 32.2523 12.8737 32.2164C12.8093 32.1805 12.7552 32.1288 12.7164 32.0661L8.386 25.065C8.3368 24.9859 8.31443 24.8931 8.32222 24.8003C8.33001 24.7075 8.36755 24.6197 8.42925 24.5499L9.12546 23.7685L7.92503 21.3599C7.89723 21.3036 7.88203 21.2418 7.8805 21.179C7.87897 21.1162 7.89114 21.0539 7.91616 20.9962C7.94118 20.9386 7.97846 20.8872 8.0254 20.8454C8.07234 20.8037 8.12781 20.7726 8.18795 20.7545L11.2081 19.8442C11.2674 19.8264 11.3298 19.8216 11.3912 19.83C11.4525 19.8384 11.5113 19.8599 11.5636 19.8931C11.616 19.9262 11.6605 19.9702 11.6944 20.022C11.7282 20.0739 11.7506 20.1324 11.7598 20.1936L13.5108 31.7755C13.5198 31.8368 13.5156 31.8994 13.4983 31.9589C13.4811 32.0185 13.4512 32.0736 13.4108 32.1206C13.3703 32.1676 13.3202 32.2054 13.2639 32.2313C13.2076 32.2573 13.1464 32.2708 13.0844 32.271ZM9.29108 24.8842L12.341 29.8139L10.981 20.815L8.92957 21.4334L10.031 23.6449C10.0695 23.7222 10.084 23.8093 10.0726 23.8949C10.0612 23.9805 10.0244 24.0608 9.96698 24.1253L9.29108 24.8842Z" fill="#FA924C"></path><path d="M14.5864 24.2084C13.6514 24.2077 12.7172 24.1511 11.789 24.0388C11.7314 24.0336 11.6755 24.0168 11.6245 23.9896C11.5735 23.9623 11.5285 23.9251 11.4922 23.8801C11.4558 23.8352 11.4289 23.7834 11.4129 23.7279C11.3969 23.6723 11.3922 23.6141 11.3991 23.5567C11.406 23.4993 11.4243 23.4439 11.4529 23.3937C11.4816 23.3435 11.5201 23.2996 11.566 23.2645C11.612 23.2294 11.6645 23.2039 11.7204 23.1895C11.7764 23.175 11.8347 23.172 11.8919 23.1805C13.6592 23.3978 15.4465 23.3978 17.2138 23.1805C17.3266 23.1683 17.4395 23.2008 17.5285 23.2711C17.6174 23.3414 17.6752 23.4439 17.6894 23.5563C17.7035 23.6688 17.673 23.7824 17.6043 23.8725C17.5355 23.9627 17.4342 24.0223 17.322 24.0384C16.4146 24.1523 15.5009 24.209 14.5864 24.2084Z" fill="#FA924C"></path><path d="M17.7751 20.6892C17.7078 20.689 17.6414 20.673 17.5814 20.6426C17.5213 20.6122 17.4692 20.5682 17.4291 20.5141C16.7865 19.6453 16.6702 17.9234 16.6594 17.7301C16.6528 17.6156 16.6919 17.5032 16.7681 17.4176C16.8443 17.332 16.9515 17.2801 17.0659 17.2734C17.18 17.2681 17.2917 17.3076 17.3771 17.3836C17.4624 17.4596 17.5146 17.5659 17.5225 17.6799C17.5489 18.1348 17.7089 19.4386 18.1241 19.9999C18.1715 20.0642 18.2002 20.1403 18.207 20.2199C18.2139 20.2995 18.1985 20.3794 18.1627 20.4508C18.1268 20.5221 18.072 20.5822 18.0041 20.6243C17.9362 20.6664 17.858 20.6889 17.7781 20.6892H17.7751Z" fill="#FA924C"></path><path d="M11.3333 20.6892C11.2535 20.6889 11.1753 20.6664 11.1074 20.6243C11.0395 20.5822 10.9846 20.5222 10.9488 20.4508C10.913 20.3794 10.8976 20.2995 10.9044 20.2199C10.9112 20.1403 10.9399 20.0642 10.9874 19.9999C11.4034 19.4378 11.563 18.1344 11.5893 17.6799C11.5926 17.6231 11.6071 17.5676 11.6319 17.5164C11.6566 17.4651 11.6912 17.4193 11.7337 17.3815C11.7762 17.3437 11.8257 17.3146 11.8795 17.2959C11.9332 17.2772 11.9901 17.2693 12.0469 17.2726C12.1036 17.2759 12.1592 17.2903 12.2104 17.3151C12.2616 17.3399 12.3075 17.3745 12.3453 17.417C12.3831 17.4595 12.4122 17.509 12.4309 17.5627C12.4496 17.6164 12.4575 17.6733 12.4542 17.7301C12.4434 17.9234 12.3245 19.6453 11.6845 20.5141C11.6439 20.5689 11.5909 20.6133 11.5299 20.6438C11.4689 20.6742 11.4015 20.6898 11.3333 20.6892Z" fill="#FA924C"></path><path d="M23.2947 26.2101C23.1822 26.2102 23.074 26.1663 22.9933 26.0879C22.9125 26.0095 22.8655 25.9027 22.8623 25.7902C22.7814 22.9742 21.7107 22.0882 21.7003 22.0795C21.611 22.0086 21.553 21.9054 21.539 21.7922C21.5249 21.679 21.5558 21.5648 21.6251 21.4741C21.6939 21.3842 21.7953 21.325 21.9075 21.3095C22.0196 21.2939 22.1334 21.3233 22.224 21.3911C22.2811 21.4343 23.6324 22.4838 23.7271 25.7651C23.7304 25.8797 23.688 25.9909 23.6094 26.0742C23.5307 26.1576 23.4222 26.2063 23.3077 26.2097L23.2947 26.2101Z" fill="#FA924C"></path><path d="M23.2968 28.7632C22.9586 28.7633 22.6281 28.6631 22.3469 28.4753C22.0658 28.2875 21.8466 28.0206 21.7172 27.7082C21.5877 27.3959 21.5538 27.0522 21.6197 26.7205C21.6856 26.3889 21.8484 26.0843 22.0874 25.8452C22.3265 25.6061 22.6311 25.4432 22.9627 25.3772C23.2943 25.3112 23.638 25.3451 23.9504 25.4744C24.2628 25.6038 24.5298 25.8229 24.7176 26.104C24.9055 26.3851 25.0057 26.7157 25.0057 27.0538C25.0053 27.5069 24.8251 27.9414 24.5047 28.2618C24.1843 28.5823 23.7499 28.7626 23.2968 28.7632ZM23.2968 26.2092C23.1297 26.2091 22.9664 26.2586 22.8274 26.3513C22.6885 26.4441 22.5802 26.576 22.5162 26.7303C22.4522 26.8846 22.4354 27.0544 22.468 27.2183C22.5005 27.3821 22.5809 27.5326 22.699 27.6508C22.8171 27.7689 22.9676 27.8494 23.1314 27.882C23.2952 27.9147 23.4651 27.898 23.6194 27.8341C23.7738 27.7702 23.9057 27.6619 23.9985 27.523C24.0913 27.3841 24.1409 27.2208 24.1409 27.0538C24.1406 26.8299 24.0516 26.6153 23.8934 26.457C23.7352 26.2987 23.5206 26.2096 23.2968 26.2092Z" fill="#FA924C"></path><path d="M5.53346 26.2101C5.4239 26.2104 5.31832 26.169 5.23805 26.0945C5.15778 26.0199 5.10881 25.9176 5.10103 25.8083C4.86535 22.4894 6.69411 21.4287 6.77195 21.385C6.87184 21.3286 6.99004 21.3142 7.10053 21.345C7.21102 21.3758 7.30477 21.4492 7.36114 21.5491C7.41751 21.649 7.43188 21.7672 7.40111 21.8777C7.37033 21.9882 7.29692 22.0819 7.19703 22.1383C7.1313 22.1772 5.77 23.0174 5.9633 25.7474C5.97138 25.8618 5.93369 25.9747 5.85852 26.0613C5.78334 26.1479 5.67684 26.2011 5.56243 26.2092L5.53346 26.2101Z" fill="#FA924C"></path><path d="M4.65875 29.6725C4.59184 29.6728 4.52577 29.6576 4.46574 29.6281C4.40571 29.5985 4.35336 29.5554 4.31281 29.5022C4.10172 29.225 3.94622 28.9095 3.85486 28.5733C3.65412 27.9184 3.71998 27.2107 4.03812 26.604C4.35627 25.9974 4.90099 25.5408 5.55389 25.3335C5.86357 25.2464 6.18751 25.2219 6.50677 25.2614C6.82603 25.3009 7.13423 25.4036 7.41335 25.5636C7.90252 25.8462 8.29379 26.2714 8.53488 26.7823C8.77597 27.2932 8.85539 27.8656 8.76254 28.4228C8.74373 28.536 8.68075 28.637 8.58744 28.7037C8.49414 28.7704 8.37816 28.7973 8.26503 28.7785C8.15189 28.7597 8.05085 28.6967 7.98415 28.6034C7.91745 28.5101 7.89054 28.3941 7.90935 28.281C7.97282 27.8991 7.91891 27.507 7.75476 27.1565C7.5906 26.8059 7.32393 26.5135 6.99 26.3177C6.80994 26.2138 6.61097 26.1467 6.40471 26.1205C6.19845 26.0943 5.98904 26.1095 5.7887 26.1651C5.35539 26.31 4.9967 26.6199 4.79042 27.0276C4.58415 27.4353 4.54694 27.9079 4.68686 28.3428C4.74944 28.573 4.85605 28.7889 5.00081 28.9785C5.04951 29.0426 5.07935 29.119 5.08698 29.1991C5.09461 29.2793 5.07972 29.3599 5.044 29.4321C5.00827 29.5042 4.95312 29.5649 4.88475 29.6074C4.81639 29.6499 4.73752 29.6724 4.65702 29.6725H4.65875Z" fill="#FA924C"></path><path d="M8.34181 28.7852C8.32495 28.7852 8.30765 28.7852 8.29035 28.7826L7.803 28.7251C7.74658 28.7184 7.69204 28.7007 7.64248 28.6729C7.59292 28.6451 7.54931 28.6078 7.51416 28.5632C7.479 28.5186 7.45298 28.4675 7.43758 28.4128C7.42218 28.3581 7.41771 28.3009 7.42441 28.2445C7.43111 28.1881 7.44886 28.1335 7.47664 28.0839C7.50442 28.0344 7.54169 27.9908 7.58632 27.9556C7.67646 27.8846 7.79111 27.8523 7.90506 27.8659L8.39241 27.9238C8.50185 27.9368 8.6022 27.9912 8.67294 28.0757C8.74368 28.1602 8.77948 28.2685 8.77302 28.3786C8.76656 28.4886 8.71833 28.592 8.63819 28.6677C8.55804 28.7433 8.45203 28.7851 8.34181 28.7852Z" fill="#FA924C"></path><path d="M4.65861 29.6765C4.55708 29.6766 4.45873 29.641 4.3808 29.5759C4.30288 29.5108 4.25034 29.4204 4.23239 29.3205C4.21445 29.2205 4.23224 29.1175 4.28265 29.0293C4.33307 28.9412 4.41289 28.8736 4.50812 28.8384L5.02704 28.6468C5.08028 28.627 5.13691 28.6178 5.19371 28.6198C5.2505 28.6218 5.30634 28.635 5.35804 28.6586C5.40974 28.6821 5.45628 28.7157 5.49502 28.7573C5.53376 28.7989 5.56392 28.8477 5.5838 28.9009C5.60368 28.9541 5.61287 29.0108 5.61086 29.0676C5.60885 29.1243 5.59567 29.1802 5.57208 29.2319C5.54849 29.2836 5.51495 29.3301 5.47337 29.3689C5.43179 29.4076 5.38298 29.4378 5.32975 29.4577L4.81083 29.6497C4.76211 29.6677 4.71055 29.6767 4.65861 29.6765Z" fill="#FA924C"></path></svg>