<svg xmlns="http://www.w3.org/2000/svg" width="31" height="31" viewBox="0 0 31 31" fill="none"><path d="M8.1875 12.3907C8.1875 16.9139 11.8674 20.5938 16.3907 20.5938C20.9139 20.5938 24.5938 16.9139 24.5938 12.3907C24.5938 7.86739 20.9139 4.1875 16.3907 4.1875C11.8674 4.1875 8.1875 7.86739 8.1875 12.3907ZM16.3907 5.28126C20.3109 5.28126 23.5001 8.47045 23.5001 12.3907C23.5001 16.3109 20.3109 19.5001 16.3907 19.5001C12.4704 19.5001 9.28126 16.3109 9.28126 12.3907C9.28126 8.47045 12.4704 5.28126 16.3907 5.28126Z" fill="#FA924C"></path><path d="M11.3262 11.4157L13.446 13.5043L12.9583 16.4397C12.9243 16.6441 13.0087 16.8501 13.1764 16.9718C13.3439 17.0936 13.5658 17.1101 13.7497 17.0148L16.3908 15.6433L19.0316 17.0148C19.214 17.1094 19.436 17.0947 19.605 16.9718C19.7727 16.8501 19.857 16.6441 19.8231 16.4397L19.3354 13.5043L21.4552 11.4157C21.6028 11.2704 21.6555 11.0542 21.5915 10.8571C21.5274 10.6601 21.3575 10.5163 21.1527 10.4854L18.2109 10.0425L16.8798 7.38056C16.7873 7.19534 16.5978 7.07828 16.3908 7.07828C16.1836 7.07828 15.9943 7.19534 15.9016 7.38056L14.5705 10.0425L11.6287 10.4854C11.4238 10.5161 11.254 10.6601 11.1899 10.8571C11.1258 11.0542 11.1788 11.2704 11.3262 11.4157ZM15.0142 11.0818C15.1902 11.0553 15.3423 10.9449 15.422 10.7857L16.3908 8.84794L17.3596 10.7857C17.4392 10.9449 17.5913 11.0553 17.7674 11.0818L19.9085 11.4042L18.3655 12.9241C18.2388 13.0491 18.1807 13.2279 18.2098 13.4035L18.5648 15.5399L16.6426 14.5419C16.5638 14.5009 16.4773 14.4804 16.3908 14.4804C16.3043 14.4804 16.2177 14.5009 16.1387 14.5419L14.2165 15.5399L14.5716 13.4035C14.6008 13.2279 14.5427 13.0491 14.4158 12.9241L12.873 11.4042L15.0142 11.0818Z" fill="#FA924C"></path><path d="M16.9375 2.54688C16.9375 2.84894 16.6927 3.09376 16.3906 3.09376C16.0886 3.09376 15.8438 2.84894 15.8438 2.54688C15.8438 2.24481 16.0886 2 16.3906 2C16.6927 2 16.9375 2.24481 16.9375 2.54688Z" fill="#FA924C"></path><path d="M13.8133 2.32233C9.21291 3.49662 6 7.63686 6 12.3906C6 15.3431 7.24137 18.1252 9.42055 20.0954L6.12582 25.9019C6.01987 26.0889 6.03311 26.3204 6.15958 26.4939C6.28604 26.6676 6.50223 26.7511 6.71265 26.7073L10.4543 25.9303L11.7693 29.6361C11.8407 29.8377 12.0233 29.979 12.2365 29.998C12.4497 30.017 12.6542 29.9095 12.7599 29.7235L16.3907 23.3404L20.0212 29.7235C20.1191 29.8954 20.3011 29.9999 20.4963 29.9999C20.5123 29.9999 20.5286 29.9992 20.5446 29.998C20.7578 29.979 20.9404 29.8375 21.012 29.6361L22.3269 25.9303L26.0685 26.7073C26.2787 26.7509 26.4951 26.6674 26.6216 26.4939C26.7482 26.3204 26.7613 26.0889 26.6553 25.9019L23.3606 20.0954C25.5398 18.1252 26.7811 15.3431 26.7811 12.3906C26.7811 7.63686 23.5682 3.49662 18.9681 2.32233C18.6752 2.24756 18.3776 2.42422 18.3028 2.71689C18.2281 3.00955 18.4047 3.30735 18.6974 3.38211C22.8131 4.43272 25.6876 8.13717 25.6876 12.3906C25.6876 17.5674 21.4833 21.6876 16.3907 21.6876C11.2945 21.6876 7.09376 17.564 7.09376 12.3906C7.09376 8.13717 9.96807 4.43272 14.0837 3.38211C14.3764 3.30735 14.5531 3.00955 14.4785 2.71689C14.4038 2.42422 14.1062 2.24756 13.8133 2.32233ZM12.4004 28.1437L11.3256 25.1152C11.2342 24.8575 10.9668 24.7069 10.6991 24.7625L7.67353 25.3907L10.281 20.7953C11.8014 21.9005 13.6016 22.5739 15.4736 22.7405L12.4004 28.1437ZM22.0821 24.7625C21.8146 24.7069 21.5469 24.8575 21.4555 25.1152L20.381 28.1437L17.3076 22.7405C19.1798 22.5739 20.9797 21.9005 22.5003 20.7953L25.1078 25.3907L22.0821 24.7625Z" fill="#FA924C"></path></svg>