<svg xmlns="http://www.w3.org/2000/svg" width="512" height="512" viewBox="0 0 512 512" fill="none"><path d="M448 279.2V263.2C452.416 263.2 456 259.619 456 255.2V207.2C456 202.781 452.416 199.2 448 199.2H404.8L403.25 193.191C399.713 179.447 394.219 166.281 386.928 154.103L383.728 148.75L414.4 118.025C417.488 114.931 417.488 109.919 414.4 106.825L380.425 72.8002C377.288 69.8096 372.359 69.8096 369.222 72.8002L338.494 103.528L333.144 100.328C320.947 93.0346 307.769 87.5408 294.006 84.0002L288 82.4377V39.2002C288 34.7814 284.419 31.2002 280 31.2002H232C227.581 31.2002 224 34.7814 224 39.2002V82.4002L217.991 83.9533C204.247 87.4877 191.081 92.9815 178.897 100.263L173.544 103.466L142.825 72.8002C139.684 69.7846 134.725 69.7846 131.584 72.8002L97.6 106.775C96.1063 108.266 95.2656 110.291 95.2656 112.4C95.2656 114.513 96.1063 116.535 97.6 118.025L128.328 148.75L125.128 154.103C117.841 166.281 112.344 179.447 108.809 193.191L107.241 199.2H64C59.5813 199.2 56 202.781 56 207.2V255.2C56 259.619 59.5813 263.2 64 263.2V279.2C50.7469 279.2 40 268.453 40 255.2V207.2C40 193.947 50.7469 183.2 64 183.2H94.9531C98.2531 172.138 102.716 161.456 108.266 151.338L86.2656 129.338C81.7656 124.847 79.2375 118.753 79.2375 112.4C79.2375 106.047 81.7656 99.9533 86.2656 95.4658L120.266 61.4658C129.738 52.4002 144.672 52.4002 154.144 61.4658L176.138 83.4565C186.256 77.9096 196.941 73.4564 208 70.1596V39.2002C208 25.9471 218.747 15.2002 232 15.2002H280C293.253 15.2002 304 25.9471 304 39.2002V70.1596C315.063 73.4564 325.741 77.919 335.863 83.4658L357.863 61.4658C367.338 52.4002 382.269 52.4002 391.744 61.4658L425.738 95.4565C430.234 99.9471 432.759 106.035 432.759 112.391C432.759 118.747 430.234 124.841 425.738 129.328L403.738 151.328C409.284 161.453 413.744 172.138 417.047 183.2H448C461.253 183.2 472 193.947 472 207.2V255.2C472 268.453 461.253 279.2 448 279.2Z" fill="#FF8630"></path><path d="M368 231.2H352C352 178.181 309.019 135.2 256 135.2C202.981 135.2 160 178.181 160 231.2H144C144 169.344 194.144 119.2 256 119.2C317.853 119.2 368 169.344 368 231.2Z" fill="#FF8630"></path><path d="M256 295.2C229.491 295.2 208 273.706 208 247.2C208 220.691 229.491 199.2 256 199.2C282.513 199.2 304 220.691 304 247.2C303.972 273.7 282.5 295.172 256 295.2ZM256 215.2C238.328 215.2 224 229.528 224 247.2C224 264.872 238.328 279.2 256 279.2C273.672 279.2 288 264.872 288 247.2C288 229.528 273.672 215.2 256 215.2Z" fill="#FF8630"></path><path d="M392 327.2C365.491 327.2 344 305.706 344 279.2C344 252.691 365.491 231.2 392 231.2C418.509 231.2 440 252.691 440 279.2C439.972 305.7 418.5 327.172 392 327.2ZM392 247.2C374.328 247.2 360 261.528 360 279.2C360 296.872 374.328 311.2 392 311.2C409.672 311.2 424 296.872 424 279.2C424 261.528 409.672 247.2 392 247.2Z" fill="#FF8630"></path><path d="M120 327.2C93.4906 327.2 72 305.706 72 279.2C72 252.691 93.4906 231.2 120 231.2C146.513 231.2 168 252.691 168 279.2C167.972 305.7 146.5 327.172 120 327.2ZM120 247.2C102.328 247.2 88 261.528 88 279.2C88 296.872 102.328 311.2 120 311.2C137.672 311.2 152 296.872 152 279.2C152 261.528 137.672 247.2 120 247.2Z" fill="#FF8630"></path><path d="M464.525 347.725C452.603 339.531 438.469 335.159 424 335.2H360C356.109 335.234 352.225 335.587 348.391 336.253C343.272 328.247 336.613 321.34 328.8 315.925C327.628 315.04 326.397 314.237 325.113 313.528C313.922 306.75 301.081 303.181 288 303.2H224C199.534 303.112 176.738 315.597 163.631 336.253C159.788 335.587 155.897 335.234 152 335.2H88C73.5438 335.159 59.4125 339.525 47.4969 347.709C27.8031 361.109 16.0125 383.381 16 407.2V439.2C16.0281 461.043 28.7375 480.881 48.5781 490.031C55.9031 493.481 63.9063 495.247 72 495.2H152V479.2H80V391.2H64V478.397C60.9875 477.793 58.0625 476.818 55.2875 475.503C41.1156 468.968 32.0313 454.803 32 439.2V407.2C32.0188 388.662 41.2031 371.334 56.5281 360.909C65.7875 354.553 76.7656 351.168 88 351.2H152C153.409 351.2 154.769 351.35 156.144 351.443C153.438 359.075 152.034 367.106 152 375.2V455.2C152.028 477.281 169.922 495.172 192 495.2H216V367.2H200V479.2H192C178.747 479.2 168 468.453 168 455.2V375.2C168 344.268 193.075 319.2 224 319.2H288C298.294 319.206 308.381 322.056 317.159 327.431C317.972 327.875 318.753 328.375 319.494 328.925C326.991 334.059 333.144 340.918 337.431 348.925C341.741 357.012 344 366.034 344 375.2V455.2C344 468.453 333.253 479.2 320 479.2H312V367.2H296V495.2H320C342.081 495.172 359.972 477.281 360 455.2V375.2C359.963 367.106 358.566 359.078 355.863 351.443C357.241 351.35 358.6 351.2 360 351.2H424C435.241 351.168 446.228 354.562 455.494 360.925C470.806 371.356 479.978 388.672 480 407.2V439.2C479.972 454.859 470.819 469.065 456.578 475.565C453.844 476.859 450.963 477.809 448 478.397V391.2H432V479.2H360V495.2H440C448.047 495.25 456.003 493.506 463.288 490.093C483.194 480.972 495.969 461.097 496 439.2V407.2C495.988 383.39 484.206 361.128 464.525 347.725Z" fill="#FF8630"></path><path d="M224 479.2H288V495.2H224V479.2Z" fill="#FF8630"></path></svg>