<svg xmlns="http://www.w3.org/2000/svg" width="442" height="512" viewBox="0 0 442 512" fill="none"><path d="M171 389.213H70C64.477 389.213 60 394.399 60 400.797C60 407.194 64.477 412.38 70 412.38H171C176.523 412.38 181 407.194 181 400.797C181 394.399 176.523 389.213 171 389.213Z" fill="#FF8630"></path><path d="M322 389.213H221C215.477 389.213 211 394.399 211 400.797C211 407.194 215.477 412.38 221 412.38H322C327.522 412.38 332 407.194 332 400.797C332 394.399 327.522 389.213 322 389.213Z" fill="#FF8630"></path><path d="M322 99.6201H70C64.477 99.6201 60 104.806 60 111.204C60 117.602 64.477 122.788 70 122.788H322C327.522 122.788 332 117.602 332 111.204C332 104.806 327.522 99.6201 322 99.6201Z" fill="#FF8630"></path><path d="M322 157.538H221C215.477 157.538 211 162.724 211 169.122C211 175.519 215.477 180.706 221 180.706H322C327.522 180.706 332 175.519 332 169.122C332 162.724 327.522 157.538 322 157.538Z" fill="#FF8630"></path><path d="M322 215.457H221C215.477 215.457 211 220.643 211 227.041C211 233.438 215.477 238.624 221 238.624H322C327.522 238.624 332 233.438 332 227.041C332 220.643 327.522 215.457 322 215.457Z" fill="#FF8630"></path><path d="M322 273.376H221C215.477 273.376 211 278.562 211 284.96C211 291.357 215.477 296.543 221 296.543H322C327.522 296.543 332 291.357 332 284.96C332 278.562 327.522 273.376 322 273.376Z" fill="#FF8630"></path><path d="M322 331.294H221C215.477 331.294 211 336.48 211 342.878C211 349.275 215.477 354.461 221 354.461H322C327.522 354.461 332 349.275 332 342.878C332 336.48 327.522 331.294 322 331.294Z" fill="#FF8630"></path><path d="M171 331.294H70C64.477 331.294 60 336.48 60 342.878C60 349.275 64.477 354.461 70 354.461H171C176.523 354.461 181 349.275 181 342.878C181 336.48 176.523 331.294 171 331.294Z" fill="#FF8630"></path><path d="M171 157.538H70C64.477 157.538 60 162.724 60 169.122V286.117C60 292.515 64.477 297.701 70 297.701H171C176.523 297.701 181 292.515 181 286.117V169.122C181 162.724 176.523 157.538 171 157.538ZM161 274.534H80V180.706H161V274.534Z" fill="#FF8630"></path><path d="M422 88.0362H392V53.2851C392 40.5106 383.028 30.1177 372 30.1177H20C8.972 30.1177 0 40.5106 0 53.2851V423.964C0 455.9 22.43 481.882 50 481.882H392C419.57 481.882 442 455.9 442 423.964V111.204C442 98.4291 433.028 88.0362 422 88.0362ZM422 423.964C422 443.126 408.542 458.715 392 458.715H50C33.458 458.715 20 443.126 20 423.964V53.2851H372V406.588C372 422.556 383.215 435.548 397 435.548C402.522 435.548 407 430.362 407 423.964C407 417.566 402.522 412.38 397 412.38C394.243 412.38 392 409.782 392 406.588V111.204H422V423.964Z" fill="#FF8630"></path></svg>