<svg xmlns="http://www.w3.org/2000/svg" width="30" height="35" viewBox="0 0 30 35" fill="none"><mask id="mask0_301_36" style="mask-type:luminance" maskUnits="userSpaceOnUse" x="2" y="4" width="26" height="26"><path d="M2 4H28V30H2V4Z" fill="white"></path></mask><g mask="url(#mask0_301_36)"><path d="M12.2253 14.0329C12.1466 13.9821 12.0531 13.9531 11.9531 13.9531C11.6728 13.9531 11.4453 14.1806 11.4453 14.4609C11.4453 14.594 11.4966 14.7154 11.5804 14.8057C11.6733 14.9063 11.8058 14.9688 11.9531 14.9688C12.2334 14.9688 12.4609 14.7412 12.4609 14.4609C12.4609 14.2807 12.367 14.1227 12.2253 14.0329Z" fill="#FA924C"></path><path d="M15 4.50781V7.85938" stroke="#FA924C" stroke-width="1.2" stroke-linecap="round" stroke-linejoin="round"></path><path d="M15 26.1406V29.4922" stroke="#FA924C" stroke-width="1.2" stroke-linecap="round" stroke-linejoin="round"></path><path d="M5.3667 8.38191L7.52135 10.5366" stroke="#FA924C" stroke-width="1.2" stroke-linecap="round" stroke-linejoin="round"></path><path d="M22.4785 23.9712L24.6332 26.1259" stroke="#FA924C" stroke-width="1.2" stroke-linecap="round" stroke-linejoin="round"></path><path d="M24.6332 8.38191L22.4785 10.5366" stroke="#FA924C" stroke-width="1.2" stroke-linecap="round" stroke-linejoin="round"></path><path d="M7.52135 23.9712L5.3667 26.1259" stroke="#FA924C" stroke-width="1.2" stroke-linecap="round" stroke-linejoin="round"></path><path d="M26.1719 17C26.1719 17 21.7311 23.6016 15 23.6016C8.26895 23.6016 3.82812 17 3.82812 17C3.82812 17 8.26895 10.3984 15 10.3984C21.7311 10.3984 26.1719 17 26.1719 17Z" stroke="#FA924C" stroke-width="1.2" stroke-linecap="round" stroke-linejoin="round"></path><path d="M13.5482 13.2046C13.5664 13.1975 13.5847 13.1909 13.603 13.1843C13.6233 13.1767 13.6436 13.1696 13.6639 13.1625C13.6822 13.1559 13.7005 13.1498 13.7193 13.1437C13.7432 13.1355 13.768 13.1274 13.7924 13.1198C13.8239 13.1102 13.8554 13.1005 13.8874 13.0919C13.9184 13.0827 13.9498 13.0741 13.9818 13.066C14.0154 13.0573 14.0488 13.0492 14.0824 13.0416C14.1139 13.0345 14.1448 13.0274 14.1763 13.0213C14.2017 13.0157 14.2271 13.0106 14.253 13.0061C14.2754 13.002 14.2977 12.9979 14.32 12.9944C14.3322 12.9918 14.3449 12.9898 14.3576 12.9883C14.3805 12.9842 14.4033 12.9812 14.4262 12.9781C14.4323 12.9771 14.4379 12.9761 14.4439 12.9756C14.4632 12.9725 14.483 12.97 14.5029 12.9675C14.5242 12.9649 14.5455 12.9624 14.5668 12.9604L14.5973 12.9573C14.6191 12.9548 14.6415 12.9527 14.6633 12.9512C14.6749 12.9502 14.6867 12.9492 14.6983 12.9487C14.713 12.9471 14.7283 12.9461 14.743 12.9456C14.7649 12.9441 14.7872 12.9431 14.8091 12.9421C14.8375 12.9405 14.8659 12.9395 14.8949 12.939C14.9294 12.938 14.9649 12.9375 15 12.9375C17.2435 12.9375 19.0625 14.7565 19.0625 17C19.0625 17.7013 18.8848 18.3609 18.572 18.9363C18.541 18.9932 18.5089 19.0495 18.4755 19.1044C18.4582 19.1333 18.4404 19.1612 18.4221 19.1897C18.3896 19.2405 18.3561 19.2902 18.3216 19.3395C18.318 19.3446 18.3144 19.3491 18.3109 19.3542C18.2368 19.4588 18.1576 19.5599 18.0732 19.6564C18.0098 19.73 17.9433 19.8016 17.8742 19.8707C17.8118 19.9331 17.7472 19.9941 17.6807 20.052C17.402 20.2972 17.0896 20.5049 16.7509 20.6664C16.6951 20.6933 16.6387 20.7187 16.5813 20.7431C16.46 20.7944 16.335 20.8401 16.2081 20.8797C16.0806 20.9193 15.9511 20.9528 15.8186 20.9797C15.554 21.0341 15.2803 21.0625 15 21.0625C12.7565 21.0625 10.9375 19.2435 10.9375 17C10.9375 16.965 10.938 16.9299 10.939 16.8954C10.9395 16.867 10.9405 16.839 10.9421 16.8106C10.9431 16.7842 10.9446 16.7578 10.9461 16.7319C10.9466 16.7243 10.9471 16.7166 10.9477 16.709C10.9497 16.6846 10.9512 16.6603 10.9537 16.6359C10.9543 16.6298 10.9548 16.6242 10.9552 16.6181C10.9578 16.5892 10.9609 16.5602 10.9644 16.5318V16.5308C10.9679 16.5003 10.9715 16.4698 10.9761 16.4394C10.9791 16.4165 10.9822 16.3937 10.9862 16.3708C10.9903 16.3404 10.9953 16.3109 11.001 16.2809C11.0019 16.2728 11.0035 16.2652 11.005 16.2571" stroke="#FA924C" stroke-width="1.2" stroke-linecap="round" stroke-linejoin="round"></path><path d="M15 18.5234C14.1601 18.5234 13.4766 17.8399 13.4766 17C13.4766 16.1601 14.1601 15.4766 15 15.4766C15.8399 15.4766 16.5234 16.1601 16.5234 17C16.5234 17.8399 15.8399 18.5234 15 18.5234Z" stroke="#FA924C" stroke-width="1.2" stroke-linecap="round" stroke-linejoin="round"></path></g></svg>